<?xml version="1.0" encoding="UTF-8"?>
<!-- Generated by Pixelmator Pro 3.5.3 -->
<svg width="1024" height="1024" viewBox="0 0 1024 1024" xmlns="http://www.w3.org/2000/svg">
    <g id="Group">
        <path id="Rounded-Rectangle" fill="#000000" fill-rule="evenodd" stroke="none" d="M 194.390076 640.541382 C 194.390076 689.045776 233.710693 728.366455 282.215118 728.366455 L 642.297852 728.366455 C 690.802307 728.366455 730.122925 689.045776 730.122925 640.541382 L 730.122925 280.458618 C 730.122925 231.954224 690.802307 192.633606 642.297852 192.633606 L 282.215118 192.633606 C 233.710693 192.633606 194.390076 231.954224 194.390076 280.458618 Z"/>
        <g id="Group-copy">
            <path id="Rounded-Rectangle-copy" fill="#000000" fill-rule="evenodd" stroke="none" d="M 440.300232 154.429688 C 440.300232 165.828186 449.540588 175.068542 460.939117 175.068542 C 472.337677 175.068542 481.578003 165.828186 481.578003 154.429688 L 481.578003 109.638916 C 481.578003 98.240356 472.337677 89 460.939117 89 C 449.540588 89 440.300232 98.240356 440.300232 109.638916 Z"/>
            <path id="Rounded-Rectangle-copy-3" fill="#000000" fill-rule="evenodd" stroke="none" d="M 352.475189 154.429688 C 352.475189 165.828186 361.715515 175.068542 373.114075 175.068542 C 384.512604 175.068542 393.75296 165.828186 393.75296 154.429688 L 393.75296 109.638916 C 393.75296 98.240356 384.512604 89 373.114075 89 C 361.715515 89 352.475189 98.240356 352.475189 109.638916 Z"/>
            <path id="Rounded-Rectangle-copy-4" fill="#000000" fill-rule="evenodd" stroke="none" d="M 264.650116 154.429688 C 264.650116 165.828186 273.890472 175.068542 285.289001 175.068542 C 296.687561 175.068542 305.927887 165.828186 305.927887 154.429688 L 305.927887 109.638916 C 305.927887 98.240356 296.687561 89 285.289001 89 C 273.890472 89 264.650116 98.240356 264.650116 109.638916 Z"/>
            <path id="Rounded-Rectangle-copy-8" fill="#000000" fill-rule="evenodd" stroke="none" d="M 528.125305 154.429688 C 528.125305 165.828186 537.365662 175.068542 548.76416 175.068542 C 560.16272 175.068542 569.403076 165.828186 569.403076 154.429688 L 569.403076 109.638916 C 569.403076 98.240356 560.16272 89 548.76416 89 C 537.365662 89 528.125305 98.240356 528.125305 109.638916 Z"/>
            <path id="Rounded-Rectangle-copy-6" fill="#000000" fill-rule="evenodd" stroke="none" d="M 615.950378 154.429688 C 615.950378 165.828186 625.190674 175.068542 636.589233 175.068542 C 647.987793 175.068542 657.228149 165.828186 657.228149 154.429688 L 657.228149 109.638916 C 657.228149 98.240356 647.987793 89 636.589233 89 C 625.190674 89 615.950378 98.240356 615.950378 109.638916 Z"/>
        </g>
        <g id="Group-copy-2">
            <path id="path1" fill="#000000" fill-rule="evenodd" stroke="none" d="M 440.300232 811.361084 C 440.300232 822.759644 449.540588 832 460.939117 832 C 472.337677 832 481.578003 822.759644 481.578003 811.361084 L 481.578003 766.570313 C 481.578003 755.171753 472.337677 745.931396 460.939117 745.931396 C 449.540588 745.931396 440.300232 755.171753 440.300232 766.570313 Z"/>
            <path id="path2" fill="#000000" fill-rule="evenodd" stroke="none" d="M 352.475189 811.361084 C 352.475189 822.759644 361.715515 832 373.114075 832 C 384.512604 832 393.75296 822.759644 393.75296 811.361084 L 393.75296 766.570313 C 393.75296 755.171753 384.512604 745.931396 373.114075 745.931396 C 361.715515 745.931396 352.475189 755.171753 352.475189 766.570313 Z"/>
            <path id="path3" fill="#000000" fill-rule="evenodd" stroke="none" d="M 264.650116 811.361084 C 264.650116 822.759644 273.890472 832 285.289001 832 C 296.687561 832 305.927887 822.759644 305.927887 811.361084 L 305.927887 766.570313 C 305.927887 755.171753 296.687561 745.931396 285.289001 745.931396 C 273.890472 745.931396 264.650116 755.171753 264.650116 766.570313 Z"/>
            <path id="path4" fill="#000000" fill-rule="evenodd" stroke="none" d="M 528.125305 811.361084 C 528.125305 822.759644 537.365662 832 548.76416 832 C 560.16272 832 569.403076 822.759644 569.403076 811.361084 L 569.403076 766.570313 C 569.403076 755.171753 560.16272 745.931396 548.76416 745.931396 C 537.365662 745.931396 528.125305 755.171753 528.125305 766.570313 Z"/>
            <path id="path5" fill="#000000" fill-rule="evenodd" stroke="none" d="M 615.950378 811.361084 C 615.950378 822.759644 625.190674 832 636.589233 832 C 647.987793 832 657.228149 822.759644 657.228149 811.361084 L 657.228149 766.570313 C 657.228149 755.171753 647.987793 745.931396 636.589233 745.931396 C 625.190674 745.931396 615.950378 755.171753 615.950378 766.570313 Z"/>
        </g>
        <g id="Group-copy-3">
            <path id="path6" fill="#000000" fill-rule="evenodd" stroke="none" d="M 811.361084 481.578003 C 822.759644 481.578003 832 472.337646 832 460.939148 C 832 449.540588 822.759644 440.300232 811.361084 440.300232 L 766.570313 440.300232 C 755.171814 440.300232 745.931458 449.540588 745.931458 460.939148 C 745.931458 472.337646 755.171814 481.578003 766.570313 481.578003 Z"/>
            <path id="path7" fill="#000000" fill-rule="evenodd" stroke="none" d="M 811.361084 569.403076 C 822.759644 569.403076 832 560.16272 832 548.76416 C 832 537.365601 822.759644 528.125305 811.361084 528.125305 L 766.570313 528.125305 C 755.171814 528.125305 745.931458 537.365601 745.931458 548.76416 C 745.931458 560.16272 755.171814 569.403076 766.570313 569.403076 Z"/>
            <path id="path8" fill="#000000" fill-rule="evenodd" stroke="none" d="M 811.361084 657.228149 C 822.759644 657.228149 832 647.987793 832 636.589233 C 832 625.190674 822.759644 615.950317 811.361084 615.950317 L 766.570313 615.950317 C 755.171814 615.950317 745.931458 625.190674 745.931458 636.589233 C 745.931458 647.987793 755.171814 657.228149 766.570313 657.228149 Z"/>
            <path id="path9" fill="#000000" fill-rule="evenodd" stroke="none" d="M 811.361084 393.75293 C 822.759644 393.75293 832 384.512634 832 373.114075 C 832 361.715515 822.759644 352.475159 811.361084 352.475159 L 766.570313 352.475159 C 755.171814 352.475159 745.931458 361.715515 745.931458 373.114075 C 745.931458 384.512634 755.171814 393.75293 766.570313 393.75293 Z"/>
            <path id="path10" fill="#000000" fill-rule="evenodd" stroke="none" d="M 811.361084 305.927917 C 822.759644 305.927917 832 296.687561 832 285.289001 C 832 273.890442 822.759644 264.650146 811.361084 264.650146 L 766.570313 264.650146 C 755.171814 264.650146 745.931458 273.890442 745.931458 285.289001 C 745.931458 296.687561 755.171814 305.927917 766.570313 305.927917 Z"/>
        </g>
        <g id="Group-copy-4">
            <path id="path11" fill="#000000" fill-rule="evenodd" stroke="none" d="M 154.429672 481.578003 C 165.828217 481.578003 175.068558 472.337646 175.068558 460.939148 C 175.068558 449.540588 165.828217 440.300232 154.429672 440.300232 L 109.638885 440.300232 C 98.240349 440.300232 89 449.540588 89 460.939148 C 89 472.337646 98.240349 481.578003 109.638885 481.578003 Z"/>
            <path id="path12" fill="#000000" fill-rule="evenodd" stroke="none" d="M 154.429672 569.403076 C 165.828217 569.403076 175.068558 560.16272 175.068558 548.76416 C 175.068558 537.365601 165.828217 528.125305 154.429672 528.125305 L 109.638885 528.125305 C 98.240349 528.125305 89 537.365601 89 548.76416 C 89 560.16272 98.240349 569.403076 109.638885 569.403076 Z"/>
            <path id="path13" fill="#000000" fill-rule="evenodd" stroke="none" d="M 154.429672 657.228149 C 165.828217 657.228149 175.068558 647.987793 175.068558 636.589233 C 175.068558 625.190674 165.828217 615.950317 154.429672 615.950317 L 109.638885 615.950317 C 98.240349 615.950317 89 625.190674 89 636.589233 C 89 647.987793 98.240349 657.228149 109.638885 657.228149 Z"/>
            <path id="path14" fill="#000000" fill-rule="evenodd" stroke="none" d="M 154.429672 393.75293 C 165.828217 393.75293 175.068558 384.512634 175.068558 373.114075 C 175.068558 361.715515 165.828217 352.475159 154.429672 352.475159 L 109.638885 352.475159 C 98.240349 352.475159 89 361.715515 89 373.114075 C 89 384.512634 98.240349 393.75293 109.638885 393.75293 Z"/>
            <path id="path15" fill="#000000" fill-rule="evenodd" stroke="none" d="M 154.429672 305.927917 C 165.828217 305.927917 175.068558 296.687561 175.068558 285.289001 C 175.068558 273.890442 165.828217 264.650146 154.429672 264.650146 L 109.638885 264.650146 C 98.240349 264.650146 89 273.890442 89 285.289001 C 89 296.687561 98.240349 305.927917 109.638885 305.927917 Z"/>
        </g>
    </g>
    <g id="g1">
        <path id="Circular-Outline" fill="#34c759" fill-rule="evenodd" stroke="none" d="M 673.5 866 C 556.139648 866 461 770.860352 461 653.5 C 461 536.139587 556.139648 441 673.5 441 C 790.860352 441 886 536.139587 886 653.5 C 886 770.860352 790.860352 866 673.5 866 Z M 673.5 833.05426 C 772.664978 833.05426 853.05426 752.664978 853.05426 653.5 C 853.05426 554.335022 772.664978 473.94574 673.5 473.94574 C 574.335022 473.94574 493.94574 554.335022 493.94574 653.5 C 493.94574 752.664978 574.335022 833.05426 673.5 833.05426 Z"/>
        <path id="Line" fill="#34c759" fill-rule="evenodd" stroke="#34c759" stroke-width="30" stroke-linecap="round" d="M 797 811 L 945 979"/>
    </g>
</svg>
