<?xml version="1.0" encoding="UTF-8"?>
<!-- Generated by Pixelmator Pro 3.5.6 -->
<svg width="1024" height="1024" viewBox="0 0 1024 1024" xmlns="http://www.w3.org/2000/svg">
    <g id="Group">
        <path id="Rounded-Rectangle" fill="#000000" fill-rule="evenodd" stroke="none" d="M 89.503548 468.401917 C 89.503548 509.594788 122.896965 542.988159 164.089828 542.988159 L 469.893616 542.988159 C 511.086487 542.988159 544.479919 509.594788 544.479919 468.401917 L 544.479919 162.598083 C 544.479919 121.405212 511.086487 88.011841 469.893616 88.011841 L 164.089828 88.011841 C 122.896965 88.011841 89.503548 121.405212 89.503548 162.598083 Z"/>
        <g id="Group-copy">
            <path id="Rounded-Rectangle-copy" fill="#000000" fill-rule="evenodd" stroke="none" d="M 298.345154 55.566772 C 298.345154 65.247131 306.192596 73.094543 315.872925 73.094543 C 325.553253 73.094543 333.400696 65.247131 333.400696 55.566772 L 333.400696 17.527771 C 333.400696 7.847473 325.553253 0 315.872925 0 C 306.192596 0 298.345154 7.847473 298.345154 17.527771 Z"/>
            <path id="Rounded-Rectangle-copy-3" fill="#000000" fill-rule="evenodd" stroke="none" d="M 223.758865 55.566772 C 223.758865 65.247131 231.606323 73.094543 241.286636 73.094543 C 250.966965 73.094543 258.814423 65.247131 258.814423 55.566772 L 258.814423 17.527771 C 258.814423 7.847473 250.966965 0 241.286636 0 C 231.606323 0 223.758865 7.847473 223.758865 17.527771 Z"/>
            <path id="Rounded-Rectangle-copy-4" fill="#000000" fill-rule="evenodd" stroke="none" d="M 149.172577 55.566772 C 149.172577 65.247131 157.020035 73.094543 166.700348 73.094543 C 176.380676 73.094543 184.228134 65.247131 184.228134 55.566772 L 184.228134 17.527771 C 184.228134 7.847473 176.380676 0 166.700348 0 C 157.020035 0 149.172577 7.847473 149.172577 17.527771 Z"/>
            <path id="Rounded-Rectangle-copy-8" fill="#000000" fill-rule="evenodd" stroke="none" d="M 372.931427 55.566772 C 372.931427 65.247131 380.7789 73.094543 390.459229 73.094543 C 400.139557 73.094543 407.987 65.247131 407.987 55.566772 L 407.987 17.527771 C 407.987 7.847473 400.139557 0 390.459229 0 C 380.7789 0 372.931427 7.847473 372.931427 17.527771 Z"/>
            <path id="Rounded-Rectangle-copy-6" fill="#000000" fill-rule="evenodd" stroke="none" d="M 447.517731 55.566772 C 447.517731 65.247131 455.365173 73.094543 465.045502 73.094543 C 474.72583 73.094543 482.573273 65.247131 482.573273 55.566772 L 482.573273 17.527771 C 482.573273 7.847473 474.72583 0 465.045502 0 C 455.365173 0 447.517731 7.847473 447.517731 17.527771 Z"/>
        </g>
        <g id="Group-copy-2">
            <path id="path1" fill="#000000" fill-rule="evenodd" stroke="none" d="M 298.345154 613.472229 C 298.345154 623.152588 306.192596 631 315.872925 631 C 325.553253 631 333.400696 623.152588 333.400696 613.472229 L 333.400696 575.433228 C 333.400696 565.75293 325.553253 557.905396 315.872925 557.905396 C 306.192596 557.905396 298.345154 565.75293 298.345154 575.433228 Z"/>
            <path id="path2" fill="#000000" fill-rule="evenodd" stroke="none" d="M 223.758865 613.472229 C 223.758865 623.152588 231.606323 631 241.286636 631 C 250.966965 631 258.814423 623.152588 258.814423 613.472229 L 258.814423 575.433228 C 258.814423 565.75293 250.966965 557.905396 241.286636 557.905396 C 231.606323 557.905396 223.758865 565.75293 223.758865 575.433228 Z"/>
            <path id="path3" fill="#000000" fill-rule="evenodd" stroke="none" d="M 149.172577 613.472229 C 149.172577 623.152588 157.020035 631 166.700348 631 C 176.380676 631 184.228134 623.152588 184.228134 613.472229 L 184.228134 575.433228 C 184.228134 565.75293 176.380676 557.905396 166.700348 557.905396 C 157.020035 557.905396 149.172577 565.75293 149.172577 575.433228 Z"/>
            <path id="path4" fill="#000000" fill-rule="evenodd" stroke="none" d="M 372.931427 613.472229 C 372.931427 623.152588 380.7789 631 390.459229 631 C 400.139557 631 407.987 623.152588 407.987 613.472229 L 407.987 575.433228 C 407.987 565.75293 400.139557 557.905396 390.459229 557.905396 C 380.7789 557.905396 372.931427 565.75293 372.931427 575.433228 Z"/>
            <path id="path5" fill="#000000" fill-rule="evenodd" stroke="none" d="M 447.517731 613.472229 C 447.517731 623.152588 455.365173 631 465.045502 631 C 474.72583 631 482.573273 623.152588 482.573273 613.472229 L 482.573273 575.433228 C 482.573273 565.75293 474.72583 557.905396 465.045502 557.905396 C 455.365173 557.905396 447.517731 565.75293 447.517731 575.433228 Z"/>
        </g>
        <g id="Group-copy-3">
            <path id="path6" fill="#000000" fill-rule="evenodd" stroke="none" d="M 613.472229 333.400696 C 623.152527 333.400696 631 325.553284 631 315.872925 C 631 306.192627 623.152527 298.345154 613.472229 298.345154 L 575.433228 298.345154 C 565.752869 298.345154 557.905457 306.192627 557.905457 315.872925 C 557.905457 325.553284 565.752869 333.400696 575.433228 333.400696 Z"/>
            <path id="path7" fill="#000000" fill-rule="evenodd" stroke="none" d="M 613.472229 407.987 C 623.152527 407.987 631 400.139526 631 390.459229 C 631 380.77887 623.152527 372.931458 613.472229 372.931458 L 575.433228 372.931458 C 565.752869 372.931458 557.905457 380.77887 557.905457 390.459229 C 557.905457 400.139526 565.752869 407.987 575.433228 407.987 Z"/>
            <path id="path8" fill="#000000" fill-rule="evenodd" stroke="none" d="M 613.472229 482.573303 C 623.152527 482.573303 631 474.72583 631 465.045532 C 631 455.365173 623.152527 447.5177 613.472229 447.5177 L 575.433228 447.5177 C 565.752869 447.5177 557.905457 455.365173 557.905457 465.045532 C 557.905457 474.72583 565.752869 482.573303 575.433228 482.573303 Z"/>
            <path id="path9" fill="#000000" fill-rule="evenodd" stroke="none" d="M 613.472229 258.814392 C 623.152527 258.814392 631 250.96698 631 241.286621 C 631 231.606323 623.152527 223.75885 613.472229 223.75885 L 575.433228 223.75885 C 565.752869 223.75885 557.905457 231.606323 557.905457 241.286621 C 557.905457 250.96698 565.752869 258.814392 575.433228 258.814392 Z"/>
            <path id="path10" fill="#000000" fill-rule="evenodd" stroke="none" d="M 613.472229 184.228149 C 623.152527 184.228149 631 176.380676 631 166.700378 C 631 157.02002 623.152527 149.172546 613.472229 149.172546 L 575.433228 149.172546 C 565.752869 149.172546 557.905457 157.02002 557.905457 166.700378 C 557.905457 176.380676 565.752869 184.228149 575.433228 184.228149 Z"/>
        </g>
        <g id="Group-copy-4">
            <path id="path11" fill="#000000" fill-rule="evenodd" stroke="none" d="M 55.566784 333.400696 C 65.247108 333.400696 73.094566 325.553284 73.094566 315.872925 C 73.094566 306.192627 65.247108 298.345154 55.566784 298.345154 L 17.527779 298.345154 C 7.847454 298.345154 -4e-06 306.192627 -4e-06 315.872925 C -4e-06 325.553284 7.847454 333.400696 17.527779 333.400696 Z"/>
            <path id="path12" fill="#000000" fill-rule="evenodd" stroke="none" d="M 55.566784 407.987 C 65.247108 407.987 73.094566 400.139526 73.094566 390.459229 C 73.094566 380.77887 65.247108 372.931458 55.566784 372.931458 L 17.527779 372.931458 C 7.847454 372.931458 -4e-06 380.77887 -4e-06 390.459229 C -4e-06 400.139526 7.847454 407.987 17.527779 407.987 Z"/>
            <path id="path13" fill="#000000" fill-rule="evenodd" stroke="none" d="M 55.566784 482.573303 C 65.247108 482.573303 73.094566 474.72583 73.094566 465.045532 C 73.094566 455.365173 65.247108 447.5177 55.566784 447.5177 L 17.527779 447.5177 C 7.847454 447.5177 -4e-06 455.365173 -4e-06 465.045532 C -4e-06 474.72583 7.847454 482.573303 17.527779 482.573303 Z"/>
            <path id="path14" fill="#000000" fill-rule="evenodd" stroke="none" d="M 55.566784 258.814392 C 65.247108 258.814392 73.094566 250.96698 73.094566 241.286621 C 73.094566 231.606323 65.247108 223.75885 55.566784 223.75885 L 17.527779 223.75885 C 7.847454 223.75885 -4e-06 231.606323 -4e-06 241.286621 C -4e-06 250.96698 7.847454 258.814392 17.527779 258.814392 Z"/>
            <path id="path15" fill="#000000" fill-rule="evenodd" stroke="none" d="M 55.566784 184.228149 C 65.247108 184.228149 73.094566 176.380676 73.094566 166.700378 C 73.094566 157.02002 65.247108 149.172546 55.566784 149.172546 L 17.527779 149.172546 C 7.847454 149.172546 -4e-06 157.02002 -4e-06 166.700378 C -4e-06 176.380676 7.847454 184.228149 17.527779 184.228149 Z"/>
        </g>
    </g>
    <g id="g1">
        <path id="path16" fill="#000000" fill-rule="evenodd" stroke="none" d="M 626.673767 904.692688 C 626.673767 934.918213 651.176392 959.420776 681.401917 959.420776 L 905.787231 959.420776 C 936.012756 959.420776 960.515381 934.918213 960.515381 904.692688 L 960.515381 680.307373 C 960.515381 650.081787 936.012756 625.579224 905.787231 625.579224 L 681.401917 625.579224 C 651.176392 625.579224 626.673767 650.081787 626.673767 680.307373 Z"/>
        <g id="g2">
            <path id="path17" fill="#000000" fill-rule="evenodd" stroke="none" d="M 779.912537 601.772461 C 779.912537 608.875488 785.670654 614.633545 792.773621 614.633545 C 799.876648 614.633545 805.634766 608.875488 805.634766 601.772461 L 805.634766 573.861084 C 805.634766 566.758118 799.876648 561 792.773621 561 C 785.670654 561 779.912537 566.758118 779.912537 573.861084 Z"/>
            <path id="path18" fill="#000000" fill-rule="evenodd" stroke="none" d="M 725.184387 601.772461 C 725.184387 608.875488 730.942505 614.633545 738.045532 614.633545 C 745.148499 614.633545 750.906616 608.875488 750.906616 601.772461 L 750.906616 573.861084 C 750.906616 566.758118 745.148499 561 738.045532 561 C 730.942505 561 725.184387 566.758118 725.184387 573.861084 Z"/>
            <path id="path19" fill="#000000" fill-rule="evenodd" stroke="none" d="M 670.456238 601.772461 C 670.456238 608.875488 676.214355 614.633545 683.317383 614.633545 C 690.420349 614.633545 696.178467 608.875488 696.178467 601.772461 L 696.178467 573.861084 C 696.178467 566.758118 690.420349 561 683.317383 561 C 676.214355 561 670.456238 566.758118 670.456238 573.861084 Z"/>
            <path id="path20" fill="#000000" fill-rule="evenodd" stroke="none" d="M 834.640686 601.772461 C 834.640686 608.875488 840.398804 614.633545 847.50177 614.633545 C 854.604797 614.633545 860.362854 608.875488 860.362854 601.772461 L 860.362854 573.861084 C 860.362854 566.758118 854.604797 561 847.50177 561 C 840.398804 561 834.640686 566.758118 834.640686 573.861084 Z"/>
            <path id="path21" fill="#000000" fill-rule="evenodd" stroke="none" d="M 889.368774 601.772461 C 889.368774 608.875488 895.126892 614.633545 902.229919 614.633545 C 909.332886 614.633545 915.091003 608.875488 915.091003 601.772461 L 915.091003 573.861084 C 915.091003 566.758118 909.332886 561 902.229919 561 C 895.126892 561 889.368774 566.758118 889.368774 573.861084 Z"/>
        </g>
        <g id="g3">
            <path id="path22" fill="#000000" fill-rule="evenodd" stroke="none" d="M 779.912537 1011.138916 C 779.912537 1018.241882 785.670654 1024 792.773621 1024 C 799.876648 1024 805.634766 1018.241882 805.634766 1011.138916 L 805.634766 983.227539 C 805.634766 976.124573 799.876648 970.366455 792.773621 970.366455 C 785.670654 970.366455 779.912537 976.124573 779.912537 983.227539 Z"/>
            <path id="path23" fill="#000000" fill-rule="evenodd" stroke="none" d="M 725.184387 1011.138916 C 725.184387 1018.241882 730.942505 1024 738.045532 1024 C 745.148499 1024 750.906616 1018.241882 750.906616 1011.138916 L 750.906616 983.227539 C 750.906616 976.124573 745.148499 970.366455 738.045532 970.366455 C 730.942505 970.366455 725.184387 976.124573 725.184387 983.227539 Z"/>
            <path id="path24" fill="#000000" fill-rule="evenodd" stroke="none" d="M 670.456238 1011.138916 C 670.456238 1018.241882 676.214355 1024 683.317383 1024 C 690.420349 1024 696.178467 1018.241882 696.178467 1011.138916 L 696.178467 983.227539 C 696.178467 976.124573 690.420349 970.366455 683.317383 970.366455 C 676.214355 970.366455 670.456238 976.124573 670.456238 983.227539 Z"/>
            <path id="path25" fill="#000000" fill-rule="evenodd" stroke="none" d="M 834.640686 1011.138916 C 834.640686 1018.241882 840.398804 1024 847.50177 1024 C 854.604797 1024 860.362854 1018.241882 860.362854 1011.138916 L 860.362854 983.227539 C 860.362854 976.124573 854.604797 970.366455 847.50177 970.366455 C 840.398804 970.366455 834.640686 976.124573 834.640686 983.227539 Z"/>
            <path id="path26" fill="#000000" fill-rule="evenodd" stroke="none" d="M 889.368774 1011.138916 C 889.368774 1018.241882 895.126892 1024 902.229919 1024 C 909.332886 1024 915.091003 1018.241882 915.091003 1011.138916 L 915.091003 983.227539 C 915.091003 976.124573 909.332886 970.366455 902.229919 970.366455 C 895.126892 970.366455 889.368774 976.124573 889.368774 983.227539 Z"/>
        </g>
        <g id="g4">
            <path id="path27" fill="#000000" fill-rule="evenodd" stroke="none" d="M 1011.138916 805.634766 C 1018.241882 805.634766 1024 799.876648 1024 792.773621 C 1024 785.670654 1018.241882 779.912537 1011.138916 779.912537 L 983.227539 779.912537 C 976.124573 779.912537 970.366455 785.670654 970.366455 792.773621 C 970.366455 799.876648 976.124573 805.634766 983.227539 805.634766 Z"/>
            <path id="path28" fill="#000000" fill-rule="evenodd" stroke="none" d="M 1011.138916 860.362915 C 1018.241882 860.362915 1024 854.604736 1024 847.50177 C 1024 840.398804 1018.241882 834.640625 1011.138916 834.640625 L 983.227539 834.640625 C 976.124573 834.640625 970.366455 840.398804 970.366455 847.50177 C 970.366455 854.604736 976.124573 860.362915 983.227539 860.362915 Z"/>
            <path id="path29" fill="#000000" fill-rule="evenodd" stroke="none" d="M 1011.138916 915.091003 C 1018.241882 915.091003 1024 909.332886 1024 902.229919 C 1024 895.126892 1018.241882 889.368774 1011.138916 889.368774 L 983.227539 889.368774 C 976.124573 889.368774 970.366455 895.126892 970.366455 902.229919 C 970.366455 909.332886 976.124573 915.091003 983.227539 915.091003 Z"/>
            <path id="path30" fill="#000000" fill-rule="evenodd" stroke="none" d="M 1011.138916 750.906616 C 1018.241882 750.906616 1024 745.148499 1024 738.045532 C 1024 730.942505 1018.241882 725.184387 1011.138916 725.184387 L 983.227539 725.184387 C 976.124573 725.184387 970.366455 730.942505 970.366455 738.045532 C 970.366455 745.148499 976.124573 750.906616 983.227539 750.906616 Z"/>
            <path id="path31" fill="#000000" fill-rule="evenodd" stroke="none" d="M 1011.138916 696.178467 C 1018.241882 696.178467 1024 690.42041 1024 683.317383 C 1024 676.214355 1018.241882 670.456299 1011.138916 670.456299 L 983.227539 670.456299 C 976.124573 670.456299 970.366455 676.214355 970.366455 683.317383 C 970.366455 690.42041 976.124573 696.178467 983.227539 696.178467 Z"/>
        </g>
        <g id="g5">
            <path id="path32" fill="#000000" fill-rule="evenodd" stroke="none" d="M 601.772461 805.634766 C 608.875427 805.634766 614.633545 799.876648 614.633545 792.773621 C 614.633545 785.670654 608.875427 779.912537 601.772461 779.912537 L 573.861084 779.912537 C 566.758118 779.912537 561 785.670654 561 792.773621 C 561 799.876648 566.758118 805.634766 573.861084 805.634766 Z"/>
            <path id="path33" fill="#000000" fill-rule="evenodd" stroke="none" d="M 601.772461 860.362915 C 608.875427 860.362915 614.633545 854.604736 614.633545 847.50177 C 614.633545 840.398804 608.875427 834.640625 601.772461 834.640625 L 573.861084 834.640625 C 566.758118 834.640625 561 840.398804 561 847.50177 C 561 854.604736 566.758118 860.362915 573.861084 860.362915 Z"/>
            <path id="path34" fill="#000000" fill-rule="evenodd" stroke="none" d="M 601.772461 915.091003 C 608.875427 915.091003 614.633545 909.332886 614.633545 902.229919 C 614.633545 895.126892 608.875427 889.368774 601.772461 889.368774 L 573.861084 889.368774 C 566.758118 889.368774 561 895.126892 561 902.229919 C 561 909.332886 566.758118 915.091003 573.861084 915.091003 Z"/>
            <path id="path35" fill="#000000" fill-rule="evenodd" stroke="none" d="M 601.772461 750.906616 C 608.875427 750.906616 614.633545 745.148499 614.633545 738.045532 C 614.633545 730.942505 608.875427 725.184387 601.772461 725.184387 L 573.861084 725.184387 C 566.758118 725.184387 561 730.942505 561 738.045532 C 561 745.148499 566.758118 750.906616 573.861084 750.906616 Z"/>
            <path id="path36" fill="#000000" fill-rule="evenodd" stroke="none" d="M 601.772461 696.178467 C 608.875427 696.178467 614.633545 690.42041 614.633545 683.317383 C 614.633545 676.214355 608.875427 670.456299 601.772461 670.456299 L 573.861084 670.456299 C 566.758118 670.456299 561 676.214355 561 683.317383 C 561 690.42041 566.758118 696.178467 573.861084 696.178467 Z"/>
        </g>
    </g>
</svg>
