<?xml version="1.0" encoding="UTF-8"?>
<!-- Generated by Pixelmator Pro 3.5.7 -->
<svg width="2895" height="1193" viewBox="0 0 2895 1193" xmlns="http://www.w3.org/2000/svg">
    <g id="Group">
        <g id="g1">
            <path id="PCB" fill="#000000" fill-rule="evenodd" stroke="none" d="M 969.376465 523 L 1196.833008 523 C 1306.467773 523 1374.455566 466.758789 1374.455566 376.70166 L 1374.455566 375.989746 C 1374.455566 308.713867 1322.841797 258.167969 1251.294434 252.828613 L 1251.294434 250.692871 C 1307.891602 243.217773 1350.606445 195.163574 1350.606445 138.922363 L 1350.606445 138.210449 C 1350.606445 59.187988 1289.737793 9.354004 1192.91748 9.354004 L 969.376465 9.354004 Z M 1165.152832 89.088379 C 1215.342773 89.088379 1244.887207 112.581543 1244.887207 153.516602 L 1244.887207 154.228516 C 1244.887207 198.723145 1212.495117 223.996094 1151.982422 223.996094 L 1076.875488 223.996094 L 1076.875488 89.088379 Z M 1164.796875 296.967285 C 1230.648926 296.967285 1264.820801 322.240234 1264.820801 369.226563 L 1264.820801 369.938477 C 1264.820801 417.636719 1231.004883 442.909668 1169.424316 442.909668 L 1076.875488 442.909668 L 1076.875488 296.967285 Z M 678.55957 531.898926 C 802.788574 531.898926 892.845703 453.944336 902.8125 344.665527 L 903.168457 340.75 L 798.51709 340.75 L 797.805176 344.30957 C 783.922852 405.178223 740.496094 440.773926 678.55957 440.773926 C 596.333496 440.773926 543.651855 373.854004 543.651855 265.643066 L 543.651855 265.287109 C 543.651855 157.788086 596.333496 91.580078 678.55957 91.580078 C 742.631836 91.580078 784.634766 128.599609 796.737305 185.196777 L 798.161133 191.248047 L 902.8125 191.248047 L 902.456543 188.044434 C 892.489746 79.121582 803.144531 0.455078 678.55957 0.455078 C 528.70166 0.455078 434.01709 100.123047 434.01709 265.643066 L 434.01709 265.999023 C 434.01709 431.519043 528.345703 531.898926 678.55957 531.898926 Z M -0.250488 523 L 107.248535 523 L 107.248535 361.039551 L 206.20459 361.039551 C 314.415527 361.039551 386.674805 291.271973 386.674805 185.552734 L 386.674805 184.84082 C 386.674805 79.121582 314.415527 9.354004 206.20459 9.354004 L -0.250488 9.354004 Z M 179.86377 94.427734 C 241.444336 94.427734 277.751953 126.819824 277.751953 185.196777 L 277.751953 185.908691 C 277.751953 244.285645 241.444336 277.033691 179.86377 277.033691 L 107.248535 277.033691 L 107.248535 94.427734 Z"/>
            <path id="Inspect---r" fill="#000000" fill-rule="evenodd" stroke="none" d="M 2720.632324 1027 L 2782.568848 1027 L 2782.568848 798.475586 C 2782.568848 742.234375 2813.893066 708.774414 2861.947266 708.774414 C 2876.897461 708.774414 2890.067871 710.554199 2895.05127 712.333984 L 2895.05127 652.177246 C 2890.067871 651.465332 2880.812988 649.685547 2870.134277 649.685547 C 2828.487305 649.685547 2796.451172 676.738281 2783.992676 719.453125 L 2782.568848 719.453125 L 2782.568848 656.804688 L 2720.632324 656.804688 Z M 2172.814453 1034.119141 C 2184.916992 1034.119141 2198.087402 1032.695313 2205.918457 1031.627441 L 2205.918457 981.4375 C 2200.579102 981.793457 2193.459961 982.861328 2185.984863 982.861328 C 2152.880859 982.861328 2135.438965 971.82666 2135.438965 932.31543 L 2135.438965 708.0625 L 2205.918457 708.0625 L 2205.918457 656.804688 L 2135.438965 656.804688 L 2135.438965 556.780762 L 2071.366699 556.780762 L 2071.366699 656.804688 L 2017.26123 656.804688 L 2017.26123 708.0625 L 2071.366699 708.0625 L 2071.366699 932.671387 C 2071.366699 1003.506836 2104.82666 1034.119141 2172.814453 1034.119141 Z M 1840.706543 1034.119141 C 1924.356445 1034.119141 1985.225098 979.657715 1995.191895 909.178223 L 1995.547852 906.686523 L 1934.679199 906.686523 L 1933.967285 909.53418 C 1923.644531 950.825195 1891.252441 979.301758 1840.706543 979.301758 C 1776.634277 979.301758 1732.495605 928.399902 1732.495605 842.258301 L 1732.495605 841.902344 C 1732.495605 757.896484 1775.566406 704.50293 1839.994629 704.50293 C 1894.456055 704.50293 1924.356445 737.250977 1933.611328 774.270508 L 1934.323242 777.118164 L 1994.835938 777.118164 L 1994.47998 774.270508 C 1986.648926 710.910156 1932.1875 649.685547 1839.994629 649.685547 C 1737.123047 649.685547 1669.135254 724.436523 1669.135254 841.19043 L 1669.135254 841.546387 C 1669.135254 959.368164 1735.699219 1034.119141 1840.706543 1034.119141 Z M 1466.239746 1034.119141 C 1547.041992 1034.119141 1607.554688 985.708984 1619.657227 924.484375 L 1620.369141 920.924805 L 1559.500488 920.924805 L 1558.432617 924.128418 C 1547.753906 955.808594 1514.649902 979.301758 1467.663574 979.301758 C 1401.811523 979.301758 1359.808594 934.807129 1358.384766 858.632324 L 1624.996582 858.632324 L 1624.996582 835.851074 C 1624.996582 724.79248 1563.416016 649.685547 1462.324219 649.685547 C 1361.232422 649.685547 1295.736328 728.352051 1295.736328 842.970215 L 1295.736328 843.326172 C 1295.736328 959.724121 1359.808594 1034.119141 1466.239746 1034.119141 Z M 1461.968262 704.50293 C 1516.07373 704.50293 1555.940918 738.318848 1561.992188 810.222168 L 1359.452637 810.222168 C 1366.21582 741.166504 1408.21875 704.50293 1461.968262 704.50293 Z M 913.438477 1151.584961 L 975.375 1151.584961 L 975.375 965.063477 L 976.798828 965.063477 C 999.936035 1007.77832 1043.006836 1034.119141 1095.33252 1034.119141 C 1188.237305 1034.119141 1251.597656 959.012207 1251.597656 842.258301 L 1251.597656 841.902344 C 1251.597656 725.148438 1188.949219 649.685547 1094.264648 649.685547 C 1041.227051 649.685547 999.936035 676.382324 976.798828 719.453125 L 975.375 719.453125 L 975.375 656.804688 L 913.438477 656.804688 Z M 1082.162109 979.301758 C 1019.869629 979.301758 975.019043 924.840332 975.019043 842.258301 L 975.019043 841.902344 C 975.019043 758.964355 1019.513672 704.50293 1082.162109 704.50293 C 1147.658203 704.50293 1188.237305 756.828613 1188.237305 841.902344 L 1188.237305 842.258301 C 1188.237305 926.620117 1147.658203 979.301758 1082.162109 979.301758 Z M 705.55957 1034.119141 C 788.141602 1034.119141 849.366211 988.556641 849.366211 923.772461 L 849.366211 923.416504 C 849.366211 870.734863 822.313477 841.19043 747.5625 823.036621 L 688.82959 808.79834 C 647.894531 798.831543 631.164551 781.389648 631.164551 756.116699 L 631.164551 755.760742 C 631.164551 723.012695 658.929199 701.299316 703.779785 701.299316 C 749.698242 701.299316 777.106934 725.148438 782.090332 761.100098 L 782.446289 763.591797 L 841.535156 763.591797 L 841.179199 758.964355 C 836.551758 697.027832 784.937988 649.685547 703.779785 649.685547 C 623.689453 649.685547 567.804199 694.89209 567.804199 758.608398 L 567.804199 758.964355 C 567.804199 812.35791 601.620117 844.75 671.387695 861.47998 L 730.120605 875.718262 C 772.123535 886.041016 786.005859 900.991211 786.005859 927.687988 L 786.005859 928.043945 C 786.005859 961.503906 756.105469 982.505371 705.915527 982.505371 C 655.369629 982.505371 627.960938 960.791992 620.48584 923.772461 L 619.773926 920.212891 L 557.837402 920.212891 L 558.193359 923.416504 C 565.668457 989.624512 618.350098 1034.119141 705.55957 1034.119141 Z M 190.133789 1027 L 252.070313 1027 L 252.070313 809.154297 C 252.070313 746.149902 290.157715 704.50293 348.534668 704.50293 C 405.487793 704.50293 433.608398 737.606934 433.608398 797.763672 L 433.608398 1027 L 495.544922 1027 L 495.544922 786.729004 C 495.544922 702.367188 448.558594 649.685547 367.400391 649.685547 C 311.15918 649.685547 273.427734 674.958496 253.494141 709.486328 L 252.070313 709.486328 L 252.070313 656.804688 L 190.133789 656.804688 Z M -0.303223 1027 L 107.195801 1027 L 107.195801 513.354004 L -0.303223 513.354004 Z"/>
        </g>
        <g id="g2">
            <path id="Oval" fill="none" stroke="#000000" stroke-width="44.164494" d="M 2648.291992 830.927124 C 2648.291992 724.255493 2561.817627 637.781067 2455.145996 637.781067 C 2348.474365 637.781067 2262 724.255493 2262 830.927124 C 2262 937.598694 2348.474365 1024.07312 2455.145996 1024.07312 C 2561.817627 1024.07312 2648.291992 937.598694 2648.291992 830.927124 Z"/>
            <path id="path1" fill="#000000" fill-rule="evenodd" stroke="none" d="M 2599.711182 831.221558 C 2599.711182 751.055176 2534.723389 686.067566 2454.557129 686.067566 C 2374.390869 686.067566 2309.40332 751.055176 2309.40332 831.221558 C 2309.40332 911.387817 2374.390869 976.375488 2454.557129 976.375488 C 2534.723389 976.375488 2599.711182 911.387817 2599.711182 831.221558 Z"/>
            <path id="Line" fill="none" stroke="#000000" stroke-width="44.164494" d="M 2776.076172 1175.997559 L 2587.050781 976.375488"/>
        </g>
    </g>
</svg>
